<svg width="90" height="90" fill="none" xmlns="http://www.w3.org/2000/svg"><path d="M65 56.923h3.612c.369 0 .721-.148.982-.413a1.42 1.42 0 0 0 .406-.996v-10.94c0-.225-.05-.447-.15-.648l-4.6-9.088a1.4 1.4 0 0 0-.519-.56 1.371 1.371 0 0 0-.731-.201H48.75v22.846" stroke="#fff" stroke-width="2" stroke-linecap="round" stroke-linejoin="round"/><path d="m66.188 45.5-3.726-7.615H53.75V45.5h12.438ZM35 56.923h18.75M25 56.923h-5v-25.88c0-.541.212-1.061.59-1.444.377-.384.889-.599 1.422-.599h24.725c.534 0 1.046.215 1.424.599.377.383.589.902.589 1.445v5.152M36.25 51.846h12.5M20 51.846h2.5" stroke="#fff" stroke-width="2" stroke-linecap="round" stroke-linejoin="round"/><path d="M30 62c2.761 0 5-2.273 5-5.077s-2.239-5.077-5-5.077-5 2.273-5 5.077S27.239 62 30 62ZM60 62c2.761 0 5-2.273 5-5.077s-2.239-5.077-5-5.077-5 2.273-5 5.077S57.239 62 60 62Z" stroke="#fff" stroke-width="2" stroke-linecap="round" stroke-linejoin="round"/></svg>