<svg width="46" height="51" fill="none" xmlns="http://www.w3.org/2000/svg"><path d="M15.59 32.693C6.98 31.857.677 24.2 1.514 15.59 2.35 6.98 10.009.68 18.619 1.515c8.61.836 14.91 8.494 14.074 17.104-.836 8.61-8.494 14.91-17.104 14.074Z" stroke="#000" stroke-width="1.5" stroke-linecap="round" stroke-linejoin="round"/><path d="M8.663 23.996a10.842 10.842 0 1 0 16.742-13.782A10.842 10.842 0 0 0 8.663 23.996v0Z" stroke="#000" stroke-width="1.5" stroke-linecap="round" stroke-linejoin="round"/><path d="M23.747 15.574a6.267 6.267 0 0 0-1.205-2.41 6.374 6.374 0 0 0-4.952-2.337M22.94 20.719c.44-.684.746-1.444.903-2.241M38.313 49.635l6.494-5.47-11.012-13.65-6.638 5.457 11.156 13.663ZM36.843 34.213l-6.674 5.434M29.096 27.948l3.17 3.855M25.313 30.972l3.217 3.904" stroke="#000" stroke-width="1.5" stroke-linecap="round" stroke-linejoin="round"/></svg>