<svg width="90" height="90" fill="none" xmlns="http://www.w3.org/2000/svg"><path d="M51.93 51.712c8.323-.811 14.414-8.24 13.606-16.59-.81-8.352-8.212-14.464-16.535-13.653-8.323.812-14.415 8.24-13.606 16.591.809 8.351 8.212 14.464 16.535 13.652Z" stroke="#fff" stroke-width="2" stroke-linecap="round" stroke-linejoin="round"/><path d="M58.412 43.14a10.294 10.294 0 0 1-4.979 3.306 10.262 10.262 0 0 1-5.97-.022 10.295 10.295 0 0 1-4.955-3.343 10.36 10.36 0 0 1-1.1-11.413 10.313 10.313 0 0 1 4.225-4.233 10.266 10.266 0 0 1 11.374 1.119 10.334 10.334 0 0 1 1.405 14.585v0Z" stroke="#fff" stroke-width="2" stroke-linecap="round" stroke-linejoin="round"/><path d="m55.82 33.574-6.215 6.235-3.113-3.124M28.056 70 22 65.138l13.01-15.727 6.262 5.153L28.057 70ZM32.163 52.862l5.91 4.886M39.249 47.223l-2.798 3.403M42.75 50.14l-2.786 3.39" stroke="#fff" stroke-width="2" stroke-linecap="round" stroke-linejoin="round"/></svg>