<svg width="90" height="90" fill="none" xmlns="http://www.w3.org/2000/svg"><path d="M66.095 23H34.487v18.53h31.608V23Z" stroke="#fff" stroke-width="2" stroke-linecap="round" stroke-linejoin="round"/><path d="M50.291 37.559c2.91 0 5.268-2.37 5.268-5.294 0-2.924-2.359-5.294-5.268-5.294-2.91 0-5.268 2.37-5.268 5.294 0 2.924 2.358 5.294 5.268 5.294ZM63.461 28.294a2.518 2.518 0 0 1-1.895-.742 2.542 2.542 0 0 1-.739-1.905M37.121 36.235a2.516 2.516 0 0 1 1.896.742 2.541 2.541 0 0 1 .738 1.905M37.121 28.294a2.518 2.518 0 0 0 1.896-.742 2.542 2.542 0 0 0 .738-1.905M63.461 36.235a2.516 2.516 0 0 0-1.895.742 2.541 2.541 0 0 0-.739 1.905M56.982 54.381l10.299-2.197a2.295 2.295 0 0 1 1.54.157c.48.229.866.618 1.094 1.1.15.536.1 1.11-.143 1.61s-.661.893-1.174 1.103L50.62 63.752a28.255 28.255 0 0 1-9.549 1.602 22.428 22.428 0 0 1-5.86-.715l-2.042-.609M33.17 65.353 29.22 68 20 50.794l3.951-2.647 9.22 17.206Z" stroke="#fff" stroke-width="2" stroke-linecap="round" stroke-linejoin="round"/><path d="M41.072 57.412h12.512c.873 0 1.71-.349 2.328-.97.617-.62.964-1.461.964-2.339v0c0-.877-.347-1.719-.964-2.34a3.284 3.284 0 0 0-2.328-.969h-8.56l-1.12-.847a15.543 15.543 0 0 0-9.325-3.123v0c-2.127.011-4.23.462-6.176 1.323l-3.135 1.324" stroke="#fff" stroke-width="2" stroke-linecap="round" stroke-linejoin="round"/></svg>